<svg width="40" height="40" viewBox="0 0 40 40" fill="none" xmlns="http://www.w3.org/2000/svg">
<path d="M18.8765 20.0396L18.4021 19.8816V19.8816L18.8765 20.0396ZM18.7768 20.3392L18.9823 20.795L19.182 20.705L19.2512 20.4971L18.7768 20.3392ZM18.2685 20.6336L18.1681 21.1234L18.3833 21.1676L18.5614 21.0388L18.2685 20.6336ZM17.9603 20.5705L18.0607 20.0807L18.0607 20.0807L17.9603 20.5705ZM16.7285 21.125L17.1617 21.3747L16.7285 21.125ZM16.8649 22.4706L16.4905 22.8021H16.4905L16.8649 22.4706ZM17.0735 22.7062L17.5711 22.7559L17.5928 22.5384L17.4479 22.3748L17.0735 22.7062ZM17.0735 23.2938L17.4479 23.6252L17.5928 23.4616L17.5711 23.2441L17.0735 23.2938ZM16.8649 23.5294L16.4905 23.1979H16.4905L16.8649 23.5294ZM16.7285 24.875L16.2953 25.1247L16.7285 24.875ZM17.9603 25.4295L17.86 24.9397L17.86 24.9397L17.9603 25.4295ZM18.2685 25.3664L18.5614 24.9612L18.3833 24.8324L18.1681 24.8766L18.2685 25.3664ZM18.7768 25.6608L19.2512 25.5029L19.182 25.295L18.9823 25.205L18.7768 25.6608ZM18.8765 25.9604L18.4021 26.1184L18.4021 26.1184L18.8765 25.9604ZM21.0664 25.9604L21.5408 26.1184V26.1184L21.0664 25.9604ZM21.1662 25.6608L20.9606 25.205L20.7609 25.295L20.6917 25.5029L21.1662 25.6608ZM21.6745 25.3664L21.7748 24.8766L21.5596 24.8324L21.3815 24.9612L21.6745 25.3664ZM21.9826 25.4295L22.083 24.9397V24.9397L21.9826 25.4295ZM23.2144 24.875L23.6476 25.1247L23.2144 24.875ZM23.078 23.5294L23.4524 23.1979V23.1979L23.078 23.5294ZM22.8694 23.2938L22.3719 23.2441L22.3501 23.4616L22.495 23.6252L22.8694 23.2938ZM22.8694 22.7062L22.495 22.3748L22.3501 22.5384L22.3719 22.7559L22.8694 22.7062ZM23.078 22.4706L23.4524 22.8021L23.4524 22.8021L23.078 22.4706ZM23.2144 21.125L23.6476 20.8753V20.8753L23.2144 21.125ZM21.9826 20.5705L22.083 21.0603L21.9826 20.5705ZM21.6745 20.6336L21.3815 21.0388L21.5596 21.1676L21.7748 21.1234L21.6745 20.6336ZM21.1662 20.3392L20.6917 20.4971L20.7609 20.705L20.9606 20.795L21.1662 20.3392ZM21.0664 20.0396L21.5408 19.8816V19.8816L21.0664 20.0396ZM19.3509 20.1975C19.4398 19.9303 19.6898 19.75 19.9715 19.75V18.75C19.2593 18.75 18.627 19.2059 18.4021 19.8816L19.3509 20.1975ZM19.2512 20.4971L19.3509 20.1975L18.4021 19.8816L18.3023 20.1813L19.2512 20.4971ZM18.5614 21.0388C18.6926 20.944 18.8335 20.8621 18.9823 20.795L18.5712 19.8834C18.3602 19.9786 18.1608 20.0945 17.9755 20.2284L18.5614 21.0388ZM17.86 21.0603L18.1681 21.1234L18.3688 20.1438L18.0607 20.0807L17.86 21.0603ZM17.1617 21.3747C17.3026 21.1302 17.5839 21.0037 17.86 21.0603L18.0607 20.0807C17.3624 19.9376 16.6513 20.2578 16.2953 20.8753L17.1617 21.3747ZM17.2392 22.1391C17.0517 21.9274 17.0206 21.6194 17.1617 21.3747L16.2953 20.8753C15.9394 21.4926 16.0182 22.2686 16.4905 22.8021L17.2392 22.1391ZM17.4479 22.3748L17.2392 22.1391L16.4905 22.8021L16.6992 23.0377L17.4479 22.3748ZM17.5589 23C17.5589 22.9175 17.5631 22.836 17.5711 22.7559L16.576 22.6565C16.5647 22.7696 16.5589 22.8842 16.5589 23H17.5589ZM17.5711 23.2441C17.5631 23.164 17.5589 23.0825 17.5589 23H16.5589C16.5589 23.1158 16.5647 23.2304 16.576 23.3435L17.5711 23.2441ZM17.2392 23.8609L17.4479 23.6252L16.6992 22.9623L16.4905 23.1979L17.2392 23.8609ZM17.1617 24.6253C17.0206 24.3806 17.0517 24.0726 17.2392 23.8609L16.4905 23.1979C16.0182 23.7314 15.9394 24.5074 16.2953 25.1247L17.1617 24.6253ZM17.86 24.9397C17.5839 24.9963 17.3026 24.8698 17.1617 24.6253L16.2953 25.1247C16.6513 25.7422 17.3624 26.0624 18.0607 25.9193L17.86 24.9397ZM18.1681 24.8766L17.86 24.9397L18.0607 25.9193L18.3688 25.8562L18.1681 24.8766ZM18.9823 25.205C18.8335 25.1379 18.6926 25.056 18.5614 24.9612L17.9755 25.7716C18.1608 25.9055 18.3602 26.0214 18.5712 26.1166L18.9823 25.205ZM19.3509 25.8025L19.2512 25.5029L18.3023 25.8187L18.4021 26.1184L19.3509 25.8025ZM19.9715 26.25C19.6898 26.25 19.4398 26.0697 19.3509 25.8025L18.4021 26.1184C18.627 26.7941 19.2593 27.25 19.9715 27.25V26.25ZM20.592 25.8025C20.5031 26.0697 20.2531 26.25 19.9715 26.25V27.25C20.6837 27.25 21.3159 26.7941 21.5408 26.1184L20.592 25.8025ZM20.6917 25.5029L20.592 25.8025L21.5408 26.1184L21.6406 25.8187L20.6917 25.5029ZM21.3815 24.9612C21.2503 25.056 21.1094 25.1379 20.9606 25.205L21.3717 26.1166C21.5827 26.0214 21.7821 25.9055 21.9674 25.7716L21.3815 24.9612ZM22.083 24.9397L21.7748 24.8766L21.5741 25.8562L21.8822 25.9193L22.083 24.9397ZM22.7813 24.6253C22.6403 24.8698 22.359 24.9963 22.083 24.9397L21.8822 25.9193C22.5805 26.0624 23.2916 25.7422 23.6476 25.1247L22.7813 24.6253ZM22.7037 23.8609C22.8912 24.0726 22.9223 24.3806 22.7813 24.6253L23.6476 25.1247C24.0035 24.5074 23.9248 23.7314 23.4524 23.1979L22.7037 23.8609ZM22.495 23.6252L22.7037 23.8609L23.4524 23.1979L23.2437 22.9623L22.495 23.6252ZM22.384 23C22.384 23.0825 22.3799 23.1639 22.3719 23.2441L23.3669 23.3435C23.3782 23.2304 23.384 23.1158 23.384 23H22.384ZM22.3719 22.7559C22.3799 22.836 22.384 22.9175 22.384 23H23.384C23.384 22.8842 23.3782 22.7696 23.3669 22.6565L22.3719 22.7559ZM22.7037 22.1391L22.495 22.3748L23.2437 23.0377L23.4524 22.8021L22.7037 22.1391ZM22.7813 21.3747C22.9223 21.6194 22.8912 21.9274 22.7037 22.1391L23.4524 22.8021C23.9248 22.2686 24.0035 21.4926 23.6476 20.8753L22.7813 21.3747ZM22.083 21.0603C22.359 21.0037 22.6403 21.1302 22.7813 21.3747L23.6476 20.8753C23.2916 20.2578 22.5805 19.9376 21.8822 20.0807L22.083 21.0603ZM21.7748 21.1234L22.083 21.0603L21.8822 20.0807L21.5741 20.1438L21.7748 21.1234ZM20.9606 20.795C21.1094 20.8621 21.2503 20.944 21.3815 21.0388L21.9674 20.2284C21.7821 20.0945 21.5827 19.9786 21.3717 19.8834L20.9606 20.795ZM20.592 20.1975L20.6917 20.4971L21.6406 20.1813L21.5408 19.8816L20.592 20.1975ZM19.9715 19.75C20.2531 19.75 20.5031 19.9303 20.592 20.1975L21.5408 19.8816C21.3159 19.2059 20.6837 18.75 19.9715 18.75V19.75Z" fill="#D4ADFC"/>
<path fill-rule="evenodd" clip-rule="evenodd" d="M19.9715 23.4167C20.2013 23.4167 20.3876 23.2302 20.3876 23C20.3876 22.7699 20.2013 22.5834 19.9715 22.5834C19.7417 22.5834 19.5555 22.7699 19.5555 23C19.5555 23.2302 19.7417 23.4167 19.9715 23.4167Z" stroke="#D4ADFC"/>
<path d="M10.9843 12C10.9843 11.4477 11.4321 11 11.9843 11H27.9587C28.511 11 28.9587 11.4477 28.9587 12V29H10.9843V12Z" stroke="#D4ADFC" stroke-linejoin="round"/>
<path fill-rule="evenodd" clip-rule="evenodd" d="M13.9801 15C14.5316 15 14.9787 14.5523 14.9787 14C14.9787 13.4477 14.5316 13 13.9801 13C13.4286 13 12.9815 13.4477 12.9815 14C12.9815 14.5523 13.4286 15 13.9801 15Z" fill="#D4ADFC"/>
<path fill-rule="evenodd" clip-rule="evenodd" d="M16.9758 15C17.5273 15 17.9744 14.5523 17.9744 14C17.9744 13.4477 17.5273 13 16.9758 13C16.4243 13 15.9772 13.4477 15.9772 14C15.9772 14.5523 16.4243 15 16.9758 15Z" fill="#D4ADFC"/>
<path fill-rule="evenodd" clip-rule="evenodd" d="M19.9715 15C20.523 15 20.9701 14.5523 20.9701 14C20.9701 13.4477 20.523 13 19.9715 13C19.42 13 18.973 13.4477 18.973 14C18.973 14.5523 19.42 15 19.9715 15Z" fill="#D4ADFC"/>
<path d="M28.9587 17H10.9843" stroke="#D4ADFC" stroke-linecap="round"/>
<path d="M39.443 20C39.443 30.7702 30.7247 39.5 19.9715 39.5C9.21836 39.5 0.5 30.7702 0.5 20C0.5 9.22977 9.21836 0.5 19.9715 0.5C30.7247 0.5 39.443 9.22977 39.443 20Z" fill="#D4ADFC" fill-opacity="0.05" stroke="#D4ADFC"/>
</svg>
