<svg width="40" height="40" viewBox="0 0 40 40" fill="none" xmlns="http://www.w3.org/2000/svg">
<path d="M39.2638 20C39.2638 30.7723 30.5834 39.5 19.8819 39.5C9.18036 39.5 0.5 30.7723 0.5 20C0.5 9.22765 9.18036 0.5 19.8819 0.5C30.5834 0.5 39.2638 9.22765 39.2638 20Z" fill="#D4ADFC" fill-opacity="0.05" stroke="#D4ADFC"/>
<path fill-rule="evenodd" clip-rule="evenodd" d="M19.8819 30C25.3721 30 29.8229 25.5228 29.8229 20C29.8229 14.4772 25.3721 10 19.8819 10C14.3917 10 9.94095 14.4772 9.94095 20C9.94095 25.5228 14.3917 30 19.8819 30Z" stroke="#D4ADFC"/>
<path fill-rule="evenodd" clip-rule="evenodd" d="M19.8819 29C19.8819 29 23.8583 25.7273 23.8583 20C23.8583 14.2727 19.8819 11 19.8819 11C19.8819 11 15.9055 14.2727 15.9055 20C15.9055 25.7273 19.8819 29 19.8819 29Z" stroke="#D4ADFC"/>
<path d="M10.438 17H29.3258" stroke="#D4ADFC" stroke-linecap="round"/>
<path d="M10.438 23H29.3258" stroke="#D4ADFC" stroke-linecap="round"/>
</svg>
