<svg width="40" height="40" viewBox="0 0 40 40" fill="none" xmlns="http://www.w3.org/2000/svg">
<path d="M39.4838 20C39.4838 30.7697 30.7568 39.5 19.9919 39.5C9.22702 39.5 0.5 30.7697 0.5 20C0.5 9.23026 9.22702 0.5 19.9919 0.5C30.7568 0.5 39.4838 9.23026 39.4838 20Z" fill="#D4ADFC" fill-opacity="0.05" stroke="#D4ADFC"/>
<path d="M21.461 18.4697L21.0054 18.2638C20.9198 18.4533 20.9604 18.6761 21.1074 18.8232L21.461 18.4697ZM13.4077 10.5847L13.1918 10.1338C13.0455 10.2038 12.9423 10.3405 12.9149 10.5004C12.8875 10.6603 12.9394 10.8235 13.0541 10.9382L13.4077 10.5847ZM17.771 14.9497L18.1246 15.3032C18.3198 15.108 18.3198 14.7915 18.1246 14.5963L17.771 14.9497ZM14.9437 17.7782L14.5901 18.1317C14.6838 18.2255 14.811 18.2782 14.9437 18.2782C15.0763 18.2782 15.2035 18.2255 15.2973 18.1317L14.9437 17.7782ZM10.5804 13.4132L10.9341 13.0597C10.8193 12.9449 10.6561 12.893 10.4961 12.9203C10.3361 12.9477 10.1994 13.051 10.1294 13.1974L10.5804 13.4132ZM17.7357 21.7429L18.0894 21.3894C17.9589 21.259 17.7672 21.2109 17.5907 21.2644L17.7357 21.7429ZM25.0753 29.0855L25.429 28.732L25.0753 29.0855ZM27.9032 29.0855L27.5496 28.732H27.5496L27.9032 29.0855ZM28.5739 28.4145L28.2203 28.061L28.5739 28.4145ZM28.5739 25.5855L28.2203 25.939L28.5739 25.5855ZM21.4911 16C21.4911 16.808 21.3173 17.574 21.0054 18.2638L21.9167 18.6757C22.2858 17.859 22.4911 16.9528 22.4911 16H21.4911ZM15.9935 10.5C19.0295 10.5 21.4911 12.9622 21.4911 16H22.4911C22.4911 12.4103 19.5822 9.5 15.9935 9.5V10.5ZM13.6236 11.0357C14.3406 10.6925 15.1439 10.5 15.9935 10.5V9.5C14.9913 9.5 14.0407 9.72735 13.1918 10.1338L13.6236 11.0357ZM18.1246 14.5963L13.7614 10.2313L13.0541 10.9382L17.4173 15.3032L18.1246 14.5963ZM15.2973 18.1317L18.1246 15.3032L17.4173 14.5963L14.5901 17.4247L15.2973 18.1317ZM10.2268 13.7667L14.5901 18.1317L15.2973 17.4247L10.9341 13.0597L10.2268 13.7667ZM10.4959 16C10.4959 15.15 10.6883 14.3463 11.0315 13.6289L10.1294 13.1974C9.72317 14.0466 9.49594 14.9975 9.49594 16H10.4959ZM15.9935 21.5C12.9575 21.5 10.4959 19.0378 10.4959 16H9.49594C9.49594 19.5897 12.4048 22.5 15.9935 22.5V21.5ZM17.5907 21.2644C17.0858 21.4175 16.5497 21.5 15.9935 21.5V22.5C16.6491 22.5 17.2829 22.4027 17.8808 22.2214L17.5907 21.2644ZM25.429 28.732L18.0894 21.3894L17.3821 22.0964L24.7217 29.439L25.429 28.732ZM27.5496 28.732C26.964 29.3179 26.0146 29.3179 25.429 28.732L24.7217 29.439C25.6979 30.4155 27.2806 30.4155 28.2568 29.439L27.5496 28.732ZM28.2203 28.061L27.5496 28.732L28.2568 29.439L28.9275 28.768L28.2203 28.061ZM28.2203 25.939C28.806 26.5249 28.806 27.4751 28.2203 28.061L28.9275 28.768C29.9036 27.7915 29.9036 26.2085 28.9275 25.232L28.2203 25.939ZM21.1074 18.8232L28.2203 25.939L28.9275 25.232L21.8147 18.1163L21.1074 18.8232Z" fill="#D4ADFC"/>
</svg>
